<svg xmlns="http://www.w3.org/2000/svg" viewBox="0 0 320.05 320.75">
    <defs>
        <style>.cls-1{fill:#FFFFFF;}</style>
    </defs>
    <title>Asset 8</title>
    <g id="Layer_2" data-name="Layer 2">
        <g id="Layer_2-2" data-name="Layer 2">
            <path class="cls-1"
                  d="M145.81,2.08A9.3,9.3,0,0,0,133.2,4.92L15.55,173.51a10.27,10.27,0,0,0,1,12.66,9.41,9.41,0,0,0,6.89,3H63.62c4.4,0,7,5.06,4.65,8.89L1.53,305.1a10.24,10.24,0,0,0-.38,10.11,9.49,9.49,0,0,0,8.37,5.19l126.43.35h0a9,9,0,0,0,4.36-1.08,10,10,0,0,0,5.18-8.84V288.23a9.9,9.9,0,0,0-9.7-10.08H70.38l62.5-108.35a10.15,10.15,0,0,0-3.07-13.48,9.19,9.19,0,0,0-5.14-1.53H89.92c-4.53,0-7.15-5.34-4.49-9.15L148.78,55a10.12,10.12,0,0,0,1.82-5.83l-.06-38.44A10.07,10.07,0,0,0,145.81,2.08Z"/>
            <path class="cls-1"
                  d="M318.57,304.57h0l-59.8-98.74a10.26,10.26,0,0,0-8.73-4.92H226.62a10.33,10.33,0,0,0-8.55,4.4,10.14,10.14,0,0,0-.45,10.9L253,277.72l-47.07.49a6.16,6.16,0,0,1-.86,0,6,6,0,0,1-.11-1.3v-180l49.51,72.47a10.2,10.2,0,0,0,8.43,4.45h24.59a10.39,10.39,0,0,0,8.17-3.9,10.15,10.15,0,0,0,.21-12.33L183.78,4.18A10.23,10.23,0,0,0,171.19,1a10.38,10.38,0,0,0-5.87,9.42V310.47a10.19,10.19,0,0,0,10.26,10.28l134.3-.69a10.21,10.21,0,0,0,8.68-15.5Z"/>
        </g>
    </g>
</svg>